<svg width="174" height="130" viewBox="0 0 174 130" fill="none" xmlns="http://www.w3.org/2000/svg">
    <path
        d="M31.9048 128.333C24.6032 128.333 18.5714 126.984 13.8095 124.286C9.04762 121.429 5.55556 117.698 3.33333 113.095C1.11111 108.492 0 103.571 0 98.3333C0 91.6667 1.50794 86.1905 4.52381 81.9048C7.69841 77.619 11.746 74.2064 16.6667 71.6667C21.5873 68.9683 26.746 66.746 32.1429 65C37.5397 63.254 42.6984 61.5873 47.6191 60C52.5397 58.254 56.5079 56.2698 59.5238 54.0476C62.5397 51.6667 64.0476 48.6508 64.0476 45V25.2381C64.0476 21.746 63.4921 18.4921 62.381 15.4762C61.4286 12.3016 59.6032 9.7619 56.9048 7.85714C54.3651 5.79365 50.7937 4.7619 46.1905 4.7619C43.3333 4.7619 40.5556 5.15873 37.8571 5.95238C35.1587 6.74603 32.7778 8.01587 30.7143 9.7619C35.7937 11.5079 39.5238 14.127 41.9048 17.619C44.4444 21.1111 45.7143 25 45.7143 29.2857C45.7143 35.1587 43.6508 39.8413 39.5238 43.3333C35.5556 46.6667 30.7937 48.3333 25.2381 48.3333C19.2064 48.3333 14.5238 46.4286 11.1905 42.619C8.01587 38.8095 6.42857 34.2063 6.42857 28.8095C6.42857 24.0476 7.61905 20.0794 10 16.9048C12.381 13.5714 15.873 10.5556 20.4762 7.85714C25.0794 5.15873 30.6349 3.1746 37.1429 1.90475C43.6508 0.634917 50.5556 0 57.8571 0C65.3175 0 72.1429 0.79365 78.3333 2.38095C84.6825 3.80952 90.0794 6.74603 94.5238 11.1905C98.0159 14.8413 100.238 19.2857 101.19 24.5238C102.143 29.7619 102.619 36.4286 102.619 44.5238V108.81C102.619 112.778 102.937 115.556 103.571 117.143C104.365 118.571 105.556 119.286 107.143 119.286C108.571 119.286 109.921 118.889 111.19 118.095C112.46 117.302 113.73 116.429 115 115.476L117.619 119.524C114.127 122.381 110 124.603 105.238 126.19C100.476 127.619 95.3175 128.333 89.7619 128.333C83.4127 128.333 78.4127 127.54 74.7619 125.952C71.2698 124.206 68.7302 121.905 67.1429 119.048C65.7143 116.19 64.9206 113.016 64.7619 109.524C61.2698 115.238 56.9048 119.841 51.6667 123.333C46.4286 126.667 39.8413 128.333 31.9048 128.333ZM51.6667 111.19C54.2064 111.19 56.4286 110.714 58.3333 109.762C60.3968 108.651 62.3016 106.825 64.0476 104.286V54.7619C62.7778 56.9841 61.0318 59.127 58.8095 61.1905C56.746 63.0952 54.5238 65.0794 52.1429 67.1429C49.7619 69.0476 47.4603 71.1905 45.2381 73.5714C43.1746 75.9524 41.4286 78.8095 40 82.1429C38.7302 85.3175 38.0952 89.2063 38.0952 93.8095C38.0952 100 39.3651 104.444 41.9048 107.143C44.4444 109.841 47.6984 111.19 51.6667 111.19Z"
        fill="url(#paint0_linear_2123_3)" />
    <path
        d="M151.765 91.1905C158.591 91.1905 163.908 92.8571 167.718 96.1905C171.686 99.5238 173.67 104.286 173.67 110.476C173.67 116.825 171.686 121.667 167.718 125C163.908 128.333 158.591 130 151.765 130C144.781 130 139.384 128.333 135.575 125C131.765 121.667 129.86 116.825 129.86 110.476C129.86 104.286 131.765 99.5238 135.575 96.1905C139.384 92.8571 144.781 91.1905 151.765 91.1905Z"
        fill="url(#paint1_linear_2123_3)" />
    <defs>
        <linearGradient id="paint0_linear_2123_3" x1="1.47125e-06" y1="15" x2="153" y2="146.5"
            gradientUnits="userSpaceOnUse">
            <stop stop-color="#42D392" />
            <stop offset="1" stop-color="#647EFF" />
        </linearGradient>
        <linearGradient id="paint1_linear_2123_3" x1="1.47125e-06" y1="15" x2="153" y2="146.5"
            gradientUnits="userSpaceOnUse">
            <stop stop-color="#42D392" />
            <stop offset="1" stop-color="#647EFF" />
        </linearGradient>
    </defs>
</svg>
    